<svg width="20" height="20" viewBox="0 0 20 20" fill="none" xmlns="http://www.w3.org/2000/svg">
<g id="search 1">
<g id="search">
<path id="Vector" d="M15.9261 8.87409C15.9143 10.0469 15.6087 11.198 15.0372 12.2222C14.387 13.4101 13.4102 14.3869 12.2224 15.037C10.8661 15.7654 9.30817 16.0284 7.78794 15.7856C6.2677 15.5429 4.8692 14.8077 3.80722 13.6932C2.74523 12.5786 2.07849 11.1463 1.90939 9.61609C1.7403 8.08591 2.07819 6.54253 2.87119 5.22299C3.66419 3.90344 4.86843 2.8807 6.29897 2.31184C7.72951 1.74298 9.30724 1.65946 10.7898 2.07411C12.2724 2.48875 13.5779 3.37863 14.5058 4.60708C15.4337 5.83553 15.9327 7.33461 15.9261 8.87409Z" stroke="#787A8D" stroke-width="1.5" stroke-miterlimit="10" stroke-linecap="square"/>
<path id="Vector_2" d="M17.5705 17.5704C17.3887 17.7539 17.1723 17.8995 16.934 17.9988C16.6956 18.0982 16.4399 18.1493 16.1816 18.1493C15.9233 18.1493 15.6676 18.0982 15.4293 17.9988C15.1909 17.8995 14.9745 17.7539 14.7927 17.5704L12.2224 15.0371C13.4102 14.3869 14.387 13.4102 15.0372 12.2223L17.5705 14.763C17.7584 14.9453 17.9079 15.1635 18.0099 15.4046C18.1119 15.6458 18.1645 15.9049 18.1645 16.1667C18.1645 16.4286 18.1119 16.6877 18.0099 16.9288C17.9079 17.17 17.7584 17.3881 17.5705 17.5704V17.5704Z" stroke="#787A8D" stroke-width="1.5" stroke-linecap="round" stroke-linejoin="round"/>
</g>
</g>
</svg>
