<svg width="20" height="20" viewBox="0 0 20 20" fill="none" xmlns="http://www.w3.org/2000/svg">
<g id="settings 1">
<g id="settings">
<path id="Vector" d="M11.8518 2.92595L12.3481 3.79262C12.5354 4.12003 12.8061 4.39194 13.1328 4.58062C13.4594 4.7693 13.8302 4.86801 14.2074 4.86669H15.1852C15.5611 4.86517 15.9307 4.96302 16.2567 5.15032C16.5827 5.33763 16.8533 5.60775 17.0413 5.93332C17.2293 6.25889 17.3279 6.62835 17.3271 7.00428C17.3264 7.38022 17.2263 7.74928 17.037 8.0741L16.5333 8.93336C16.344 9.25967 16.2444 9.6302 16.2444 10.0074C16.2444 10.3847 16.344 10.7552 16.5333 11.0815L17.037 11.9408C17.2244 12.2654 17.323 12.6337 17.3228 13.0085C17.3226 13.3834 17.2237 13.7515 17.0359 14.076C16.8482 14.4004 16.5782 14.6696 16.2533 14.8566C15.9284 15.0435 15.56 15.1415 15.1852 15.1408H14.2074C13.8302 15.1394 13.4594 15.2382 13.1328 15.4268C12.8061 15.6155 12.5354 15.8874 12.3481 16.2148L11.8518 17.0815C11.6652 17.4079 11.3956 17.6791 11.0704 17.8677C10.7452 18.0564 10.3759 18.1557 9.99997 18.1557C9.62401 18.1557 9.25474 18.0564 8.92954 17.8677C8.60434 17.6791 8.33476 17.4079 8.14811 17.0815L7.65182 16.2148C7.46453 15.8874 7.19378 15.6155 6.86717 15.4268C6.54055 15.2382 6.16975 15.1394 5.79256 15.1408H4.81478C4.43884 15.1423 4.06918 15.0444 3.74323 14.8571C3.41728 14.6698 3.14661 14.3997 2.95863 14.0741C2.77066 13.7486 2.67206 13.3791 2.67281 13.0032C2.67357 12.6272 2.77365 12.2582 2.96293 11.9334L3.46663 11.0741C3.6559 10.7478 3.75558 10.3773 3.75558 10C3.75558 9.62279 3.6559 9.25226 3.46663 8.92595L2.94811 8.06669C2.75817 7.74079 2.65804 7.37035 2.65793 6.99314C2.65781 6.61593 2.75772 6.24543 2.94745 5.91942C3.13719 5.5934 3.40998 5.32352 3.73801 5.13728C4.06604 4.95105 4.43759 4.85512 4.81478 4.85928H5.79256C6.16902 4.86135 6.53933 4.76376 6.86588 4.57642C7.19243 4.38907 7.46359 4.11865 7.65182 3.79262L8.14811 2.92595C8.33476 2.5996 8.60434 2.32837 8.92954 2.13974C9.25474 1.9511 9.62401 1.85175 9.99997 1.85175C10.3759 1.85175 10.7452 1.9511 11.0704 2.13974C11.3956 2.32837 11.6652 2.5996 11.8518 2.92595Z" stroke="white" stroke-width="1.5" stroke-linecap="round" stroke-linejoin="round"/>
<path id="Vector_2" d="M10.0001 12.8074C11.5506 12.8074 12.8075 11.5505 12.8075 10C12.8075 8.44955 11.5506 7.19263 10.0001 7.19263C8.44961 7.19263 7.19269 8.44955 7.19269 10C7.19269 11.5505 8.44961 12.8074 10.0001 12.8074Z" stroke="white" stroke-width="2" stroke-linecap="round" stroke-linejoin="round"/>
</g>
</g>
</svg>
